<?xml version="1.0" encoding="UTF-8" standalone="no"?>
<svg
   width="839.03552pt"
   height="309.63977pt"
   viewBox="0 0 839.03549 309.63977"
   version="1.1"
   id="svg39"
   sodipodi:docname="assignment_uncertainty_analysis - v2.svg"
   inkscape:version="1.4.2 (ebf0e940, 2025-05-08)"
   inkscape:export-filename="assignment_uncertainty_analysis - v2.png"
   inkscape:export-xdpi="330"
   inkscape:export-ydpi="330"
   xmlns:inkscape="http://www.inkscape.org/namespaces/inkscape"
   xmlns:sodipodi="http://sodipodi.sourceforge.net/DTD/sodipodi-0.dtd"
   xmlns:xlink="http://www.w3.org/1999/xlink"
   xmlns="http://www.w3.org/2000/svg"
   xmlns:svg="http://www.w3.org/2000/svg"
   xmlns:rdf="http://www.w3.org/1999/02/22-rdf-syntax-ns#"
   xmlns:cc="http://creativecommons.org/ns#"
   xmlns:dc="http://purl.org/dc/elements/1.1/">
  <sodipodi:namedview
     id="namedview39"
     pagecolor="#ffffff"
     bordercolor="#000000"
     borderopacity="0.25"
     inkscape:showpageshadow="2"
     inkscape:pageopacity="0.0"
     inkscape:pagecheckerboard="0"
     inkscape:deskcolor="#d1d1d1"
     inkscape:document-units="pt"
     inkscape:zoom="1.4734967"
     inkscape:cx="556.49938"
     inkscape:cy="140.48216"
     inkscape:window-width="2560"
     inkscape:window-height="1387"
     inkscape:window-x="1920"
     inkscape:window-y="25"
     inkscape:window-maximized="0"
     inkscape:current-layer="svg39"
     showguides="true">
    <inkscape:page
       x="0"
       y="0"
       width="839.03552"
       height="309.63977"
       id="page39"
       margin="2.8346457"
       bleed="0" />
  </sodipodi:namedview>
  <metadata
     id="metadata1">
    <rdf:RDF>
      <cc:Work>
        <dc:type
           rdf:resource="http://purl.org/dc/dcmitype/StillImage" />
        <dc:date>2025-06-15T22:45:11.918329</dc:date>
        <dc:format>image/svg+xml</dc:format>
        <dc:creator>
          <cc:Agent>
            <dc:title>Matplotlib v3.10.0, https://matplotlib.org/</dc:title>
          </cc:Agent>
        </dc:creator>
      </cc:Work>
    </rdf:RDF>
  </metadata>
  <defs
     id="defs1">
    <style
       type="text/css"
       id="style1">*{stroke-linejoin: round; stroke-linecap: butt}</style>
  </defs>
  <g
     id="patch_2"
     transform="translate(-4.1890148,-17.781353)">
    <path
       d="M 48.718875,288.72553 H 839.76487 V 23.50725 H 48.718875 Z"
       style="fill:none"
       id="path2" />
  </g>
  <g
     id="line2d_1"
     transform="translate(-4.1890148,-17.781353)">
    <defs
       id="defs2">
      <path
         id="mb50c469a33"
         d="M 0,0 V 6"
         style="stroke:#262626;stroke-width:1.25" />
    </defs>
    <g
       id="g2">
      <use
         xlink:href="#mb50c469a33"
         x="152.70158"
         y="288.72552"
         style="fill:#262626;stroke:#262626;stroke-width:1.25"
         id="use2" />
    </g>
  </g>
  <text
     style="font-size:13.2px;font-family:Arial;fill:#262626"
     id="text2"
     x="116.46357"
     y="300.11978">Acid/base</text>
  <g
     id="line2d_2"
     transform="translate(-4.1890148,-17.781353)">
    <g
       id="g3">
      <use
         xlink:href="#mb50c469a33"
         x="347.06177"
         y="288.72552"
         style="fill:#262626;stroke:#262626;stroke-width:1.25"
         id="use3" />
    </g>
  </g>
  <text
     style="font-size:13.2px;font-family:Arial;fill:#262626"
     id="text3"
     x="323.43799"
     y="302.71881">Redox</text>
  <g
     id="line2d_3"
     transform="translate(-4.1890148,-17.781353)">
    <g
       id="g4">
      <use
         xlink:href="#mb50c469a33"
         x="541.422"
         y="288.72552"
         style="fill:#262626;stroke:#262626;stroke-width:1.25"
         id="use4" />
    </g>
  </g>
  <text
     style="font-size:13.2px;font-family:Arial;fill:#262626"
     id="text4"
     x="477.79144"
     y="304.02719">Acid/base (acid-rich)</text>
  <g
     id="line2d_4"
     transform="translate(-4.1893725,-17.781353)">
    <g
       id="g5">
      <use
         xlink:href="#mb50c469a33"
         x="735.78217"
         y="288.72552"
         style="fill:#262626;stroke:#262626;stroke-width:1.25"
         id="use5" />
    </g>
  </g>
  <text
     style="font-size:13.2px;font-family:Arial;fill:#262626"
     id="text5"
     x="677.02728"
     y="302.70584">Acid/base (base-rich)</text>
  <g
     id="matplotlib.axis_2"
     transform="translate(-4.1890148,-17.781353)">
    <g
       id="ytick_1">
      <g
         id="line2d_5">
        <path
           d="M 48.718875,279.86259 H 839.76487"
           clip-path="url(#pbefbd45709)"
           style="fill:none;stroke:#cccccc;stroke-linecap:round;stroke-opacity:0.3"
           id="path5" />
      </g>
      <g
         id="line2d_6">
        <defs
           id="defs5">
          <path
             id="mb5f4b7e337"
             d="M 0,0 H -6"
             style="stroke:#262626;stroke-width:1.25" />
        </defs>
        <g
           id="g6">
          <use
             xlink:href="#mb5f4b7e337"
             x="48.718876"
             y="279.86261"
             style="fill:#262626;stroke:#262626;stroke-width:1.25"
             id="use6" />
        </g>
      </g>
      <g
         id="text_5">
        <text
           style="font-size:13.2px;font-family:Arial;text-anchor:end;fill:#262626"
           x="39.218876"
           y="284.58676"
           id="text6">10</text>
      </g>
    </g>
    <g
       id="ytick_2">
      <g
         id="line2d_7">
        <path
           d="M 48.718875,237.44872 H 839.76487"
           clip-path="url(#pbefbd45709)"
           style="fill:none;stroke:#cccccc;stroke-linecap:round;stroke-opacity:0.3"
           id="path6" />
      </g>
      <g
         id="line2d_8">
        <g
           id="g7">
          <use
             xlink:href="#mb5f4b7e337"
             x="48.718876"
             y="237.44872"
             style="fill:#262626;stroke:#262626;stroke-width:1.25"
             id="use7" />
        </g>
      </g>
      <g
         id="text_6">
        <text
           style="font-size:13.2px;font-family:Arial;text-anchor:end;fill:#262626"
           x="39.218876"
           y="242.17288"
           id="text7">20</text>
      </g>
    </g>
    <g
       id="ytick_3">
      <g
         id="line2d_9">
        <path
           d="M 48.718875,195.03484 H 839.76487"
           clip-path="url(#pbefbd45709)"
           style="fill:none;stroke:#cccccc;stroke-linecap:round;stroke-opacity:0.3"
           id="path7" />
      </g>
      <g
         id="line2d_10">
        <g
           id="g8">
          <use
             xlink:href="#mb5f4b7e337"
             x="48.718876"
             y="195.03485"
             style="fill:#262626;stroke:#262626;stroke-width:1.25"
             id="use8" />
        </g>
      </g>
      <g
         id="text_7">
        <text
           style="font-size:13.2px;font-family:Arial;text-anchor:end;fill:#262626"
           x="39.218876"
           y="199.759"
           id="text8">30</text>
      </g>
    </g>
    <g
       id="ytick_4">
      <g
         id="line2d_11">
        <path
           d="M 48.718875,152.62097 H 839.76487"
           clip-path="url(#pbefbd45709)"
           style="fill:none;stroke:#cccccc;stroke-linecap:round;stroke-opacity:0.3"
           id="path8" />
      </g>
      <g
         id="line2d_12">
        <g
           id="g9">
          <use
             xlink:href="#mb5f4b7e337"
             x="48.718876"
             y="152.62097"
             style="fill:#262626;stroke:#262626;stroke-width:1.25"
             id="use9" />
        </g>
      </g>
      <g
         id="text_8">
        <text
           style="font-size:13.2px;font-family:Arial;text-anchor:end;fill:#262626"
           x="39.218876"
           y="157.34512"
           id="text9">40</text>
      </g>
    </g>
    <g
       id="ytick_5">
      <g
         id="line2d_13">
        <path
           d="M 48.718875,110.20709 H 839.76487"
           clip-path="url(#pbefbd45709)"
           style="fill:none;stroke:#cccccc;stroke-linecap:round;stroke-opacity:0.3"
           id="path9" />
      </g>
      <g
         id="line2d_14">
        <g
           id="g10">
          <use
             xlink:href="#mb5f4b7e337"
             x="48.718876"
             y="110.20709"
             style="fill:#262626;stroke:#262626;stroke-width:1.25"
             id="use10" />
        </g>
      </g>
      <g
         id="text_9">
        <text
           style="font-size:13.2px;font-family:Arial;text-anchor:end;fill:#262626"
           x="39.218876"
           y="114.93125"
           id="text10">50</text>
      </g>
    </g>
    <g
       id="ytick_6">
      <g
         id="line2d_15">
        <path
           d="M 48.718875,67.793217 H 839.76487"
           clip-path="url(#pbefbd45709)"
           style="fill:none;stroke:#cccccc;stroke-linecap:round;stroke-opacity:0.3"
           id="path10" />
      </g>
      <g
         id="line2d_16">
        <g
           id="g11">
          <use
             xlink:href="#mb5f4b7e337"
             x="48.718876"
             y="67.793221"
             style="fill:#262626;stroke:#262626;stroke-width:1.25"
             id="use11" />
        </g>
      </g>
      <g
         id="text_10">
        <text
           style="font-size:13.2px;font-family:Arial;text-anchor:end;fill:#262626"
           x="39.218876"
           y="72.517372"
           id="text11">60</text>
      </g>
    </g>
    <g
       id="ytick_7">
      <g
         id="line2d_17">
        <path
           d="M 48.718875,25.379342 H 839.76487"
           clip-path="url(#pbefbd45709)"
           style="fill:none;stroke:#cccccc;stroke-linecap:round;stroke-opacity:0.3"
           id="path11" />
      </g>
      <g
         id="line2d_18">
        <g
           id="g12">
          <use
             xlink:href="#mb5f4b7e337"
             x="48.718876"
             y="25.379341"
             style="fill:#262626;stroke:#262626;stroke-width:1.25"
             id="use12" />
        </g>
      </g>
      <g
         id="text_11">
        <text
           style="font-size:13.2px;font-family:Arial;text-anchor:end;fill:#262626"
           x="39.218876"
           y="30.103498"
           id="text12">70</text>
      </g>
    </g>
    <g
       id="text_12">
      <text
         style="font-size:14.4px;font-family:Arial;text-anchor:middle;fill:#262626"
         x="17.50725"
         y="156.11639"
         transform="rotate(-90,17.50725,156.11639)"
         id="text13"
         dx="0 0 0 0 0 0 0 0 0 0 0">% droplets assigned</text>
    </g>
  </g>
  <g
     id="FillBetweenPolyCollection_1"
     transform="translate(-4.1890148,-17.781353)">
    <defs
       id="defs13">
      <path
         id="mb1cdb90861"
         d="m 104.1924,-238.83905 h -0.16174 l -0.0308,-0.59397 -0.0428,-0.59396 -0.0586,-0.59397 -0.0774,-0.59396 -0.0985,-0.59397 -0.12134,-0.59396 -0.14615,-0.59397 -0.17295,-0.59396 -0.20093,-0.59397 -0.22839,-0.59396 -0.25403,-0.59397 -0.27867,-0.59396 -0.30569,-0.59397 -0.33969,-0.59396 -0.3835,-0.59397 -0.43595,-0.59396 -0.49186,-0.59397 -0.544242,-0.59396 -0.587677,-0.59397 -0.62071,-0.59396 -0.646366,-0.59397 -0.670885,-0.59396 -0.701434,-0.59397 -0.743605,-0.59396 -0.799125,-0.59397 -0.864057,-0.59396 -0.928256,-0.59397 -0.977273,-0.59396 -0.997268,-0.59397 -0.981364,-0.59396 -0.933702,-0.59397 -0.8678,-0.59396 -0.798952,-0.59397 -0.734834,-0.59396 -0.670387,-0.59397 -0.590902,-0.59396 -0.48208,-0.59397 -0.340992,-0.59396 -0.180729,-0.59397 -0.02515,-0.59396 0.103413,-0.59397 0.195685,-0.59396 0.259044,-0.59397 0.311643,-0.59396 0.372093,-0.59397 0.451477,-0.59397 0.550737,-0.59396 0.661782,-0.59396 0.769495,-0.59397 0.854433,-0.59396 0.89794,-0.59397 0.889462,-0.59396 0.832252,-0.59397 0.742717,-0.59396 0.642716,-0.59397 0.549584,-0.59396 0.470571,-0.59397 0.404566,-0.59397 0.348149,-0.59396 0.300271,-0.59397 0.262356,-0.59396 0.23536,-0.59397 0.217877,-0.59396 0.207642,-0.59397 0.20495,-0.59396 0.21444,-0.59397 0.242906,-0.59396 0.294211,-0.59397 0.36475,-0.59396 0.442685,-0.59397 0.511595,-0.59396 0.55651,-0.59397 0.569073,-0.59396 0.549575,-0.59397 0.50556,-0.59396 0.44836,-0.59397 0.38941,-0.59396 0.33755,-0.59397 0.2978,-0.59396 0.27103,-0.59397 0.25456,-0.59396 0.24337,-0.59397 0.23166,-0.59396 0.21484,-0.59397 0.19096,-0.59396 0.16103,-0.59397 0.12822,-0.59396 0.0963,-0.59397 0.068,-0.59396 0.0449,-0.59397 0.0269,-0.59396 0.0132,-0.59397 0.003,-0.59396 -0.005,-0.59397 -0.01,-0.59396 -0.0118,-0.59397 -0.0102,-0.59396 -0.006,-0.59397 7.2e-4,-0.59396 h 0.13902 v 0 l 7.2e-4,0.59396 -0.006,0.59397 -0.0102,0.59396 -0.0118,0.59397 -0.01,0.59396 -0.005,0.59397 0.003,0.59396 0.0132,0.59397 0.0269,0.59396 0.0449,0.59397 0.068,0.59396 0.0962,0.59397 0.12821,0.59396 0.16103,0.59397 0.19096,0.59396 0.21485,0.59397 0.23165,0.59396 0.24337,0.59397 0.25456,0.59396 0.27103,0.59397 0.2978,0.59396 0.33756,0.59397 0.3894,0.59396 0.44836,0.59397 0.50556,0.59396 0.54958,0.59397 0.56907,0.59396 0.55651,0.59397 0.51159,0.59396 0.44269,0.59397 0.36475,0.59396 0.29421,0.59397 0.24291,0.59396 0.21444,0.59397 0.20495,0.59396 0.20764,0.59397 0.21788,0.59396 0.23536,0.59397 0.26235,0.59396 0.30027,0.59397 0.34815,0.59396 0.40457,0.59397 0.47057,0.59397 0.54958,0.59396 0.64272,0.59397 0.74271,0.59396 0.83226,0.59397 0.88946,0.59396 0.89794,0.59397 0.85443,0.59396 0.7695,0.59397 0.66178,0.59396 0.55074,0.59396 0.45147,0.59397 0.3721,0.59397 0.31164,0.59396 0.25904,0.59397 0.19569,0.59396 0.10341,0.59397 -0.0251,0.59396 -0.18073,0.59397 -0.34099,0.59396 -0.48208,0.59397 -0.5909,0.59396 -0.67039,0.59397 -0.73483,0.59396 -0.79895,0.59397 -0.8678,0.59396 -0.93371,0.59397 -0.98136,0.59396 -0.99727,0.59397 -0.97727,0.59396 -0.92826,0.59397 -0.86405,0.59396 -0.79913,0.59397 -0.7436,0.59396 -0.70144,0.59397 -0.67088,0.59396 -0.64637,0.59397 -0.62071,0.59396 -0.58768,0.59397 -0.54424,0.59396 -0.49185,0.59397 -0.43596,0.59396 -0.3835,0.59397 -0.33968,0.59396 -0.3057,0.59397 -0.27867,0.59396 -0.25403,0.59397 -0.22838,0.59396 -0.20093,0.59397 -0.17296,0.59396 -0.14615,0.59397 -0.12134,0.59396 -0.0985,0.59397 -0.0775,0.59396 -0.0586,0.59397 -0.0429,0.59396 z"
         style="stroke:#000000" />
    </defs>
    <g
       clip-path="url(#pbefbd45709)"
       id="g13">
      <use
         xlink:href="#mb1cdb90861"
         x="0"
         y="413.86734"
         style="fill:#9273a7;stroke:#000000"
         id="use13" />
    </g>
  </g>
  <g
     id="FillBetweenPolyCollection_2"
     transform="translate(-4.1890148,-17.781353)">
    <defs
       id="defs14">
      <path
         id="m9faf1a14ad"
         d="m 152.82117,-150.81025 h -0.23918 l -0.0401,-0.60468 -0.053,-0.60467 -0.0702,-0.60468 -0.0922,-0.60468 -0.1192,-0.60467 -0.15081,-0.60468 -0.18609,-0.60467 -0.22386,-0.60468 -0.26292,-0.60467 -0.30245,-0.60468 -0.34201,-0.60468 -0.38145,-0.60467 -0.42049,-0.60468 -0.45806,-0.60467 -0.49203,-0.60468 -0.51909,-0.60468 -0.53534,-0.60467 -0.53713,-0.60468 -0.52201,-0.60467 -0.48926,-0.60468 -0.43995,-0.60468 -0.37641,-0.60467 -0.30158,-0.60468 -0.21843,-0.60467 -0.13002,-0.60468 -0.0398,-0.60467 0.0481,-0.60468 0.12831,-0.60468 0.19502,-0.60467 0.24231,-0.60468 0.26527,-0.60467 0.26084,-0.60468 0.22835,-0.60468 0.16981,-0.60467 0.0898,-0.60468 -0.005,-0.60467 -0.10731,-0.60468 -0.20847,-0.60468 -0.30174,-0.60467 -0.38224,-0.60468 -0.44792,-0.60467 -0.49958,-0.60468 -0.54022,-0.60467 -0.57367,-0.60468 -0.60305,-0.60468 -0.62951,-0.60467 -0.65154,-0.60468 -0.66553,-0.60467 -0.66687,-0.60468 -0.65185,-0.60468 -0.61921,-0.60467 -0.5712,-0.60468 -0.51331,-0.60467 -0.45325,-0.60468 -0.39894,-0.60468 -0.35663,-0.60467 -0.32962,-0.60468 -0.31802,-0.60467 -0.31935,-0.60468 -0.32942,-0.60467 -0.34278,-0.60468 -0.35306,-0.60468 -0.35304,-0.60467 -0.33566,-0.60468 -0.29558,-0.60467 -0.23098,-0.60468 -0.14427,-0.60468 -0.0413,-0.60467 0.0711,-0.60468 0.18747,-0.60467 0.30565,-0.60468 0.42597,-0.60468 0.54951,-0.60467 0.67559,-0.60468 0.80023,-0.60467 0.91633,-0.60468 1.01548,-0.60467 1.09045,-0.60468 1.13714,-0.60468 1.15546,-0.60467 1.1485,-0.60468 1.12107,-0.60467 1.07798,-0.60468 1.02296,-0.60468 0.95841,-0.60467 0.88573,-0.60468 0.80604,-0.60467 0.72069,-0.60468 0.63163,-0.60467 0.54142,-0.60468 0.45313,-0.60468 0.36992,-0.60467 0.29485,-0.60468 0.23025,-0.60467 0.17751,-0.60468 0.13673,-0.60468 0.10679,-0.60467 0.0856,-0.60468 0.0708,-0.60467 h 0.53132 v 0 l 0.0708,0.60467 0.0856,0.60468 0.10679,0.60467 0.13673,0.60468 0.17751,0.60468 0.23025,0.60467 0.29485,0.60468 0.36992,0.60467 0.45312,0.60468 0.54143,0.60468 0.63163,0.60467 0.72069,0.60468 0.80603,0.60467 0.88574,0.60468 0.95841,0.60467 1.02296,0.60468 1.07798,0.60468 1.12107,0.60467 1.1485,0.60468 1.15546,0.60467 1.13714,0.60468 1.09045,0.60468 1.01548,0.60467 0.91633,0.60468 0.80023,0.60467 0.67559,0.60468 0.54951,0.60467 0.42597,0.60468 0.30565,0.60468 0.18747,0.60467 0.0711,0.60468 -0.0413,0.60467 -0.14427,0.60468 -0.23098,0.60468 -0.29558,0.60467 -0.33566,0.60468 -0.35304,0.60467 -0.35306,0.60468 -0.34278,0.60468 -0.32942,0.60467 -0.31935,0.60468 -0.31802,0.60467 -0.32962,0.60468 -0.35663,0.60467 -0.39894,0.60468 -0.45325,0.60468 -0.51331,0.60467 -0.5712,0.60468 -0.61921,0.60467 -0.65185,0.60468 -0.66687,0.60468 -0.66553,0.60467 -0.65154,0.60468 -0.62951,0.60467 -0.60305,0.60468 -0.57367,0.60468 -0.54022,0.60467 -0.49958,0.60468 -0.44792,0.60467 -0.38224,0.60468 -0.30174,0.60467 -0.20847,0.60468 -0.10731,0.60468 -0.005,0.60467 0.0898,0.60468 0.16981,0.60467 0.22835,0.60468 0.26084,0.60468 0.26527,0.60467 0.24231,0.60468 0.19502,0.60467 0.12831,0.60468 0.0481,0.60468 -0.0398,0.60467 -0.13001,0.60468 -0.21843,0.60467 -0.30158,0.60468 -0.37641,0.60467 -0.43995,0.60468 -0.48926,0.60468 -0.52201,0.60467 -0.53713,0.60468 -0.53534,0.60467 -0.51909,0.60468 -0.49203,0.60468 -0.45806,0.60467 -0.42049,0.60468 -0.38145,0.60467 -0.34201,0.60468 -0.30245,0.60468 -0.26292,0.60467 -0.22386,0.60468 -0.18609,0.60467 -0.15081,0.60468 -0.1192,0.60467 -0.0922,0.60468 -0.0702,0.60468 -0.053,0.60467 z"
         style="stroke:#000000" />
    </defs>
    <g
       clip-path="url(#pbefbd45709)"
       id="g14">
      <use
         xlink:href="#m9faf1a14ad"
         x="0"
         y="413.86734"
         style="fill:#5968a5;stroke:#000000"
         id="use14" />
    </g>
  </g>
  <g
     id="FillBetweenPolyCollection_3"
     transform="translate(-4.1890148,-17.781353)">
    <defs
       id="defs15">
      <path
         id="mdf40c0541c"
         d="m 202.96308,-231.08226 h -3.3429 l -0.51888,-0.56335 -0.62882,-0.56336 -0.74603,-0.56336 -0.86641,-0.56336 -0.98481,-0.56336 -1.09545,-0.56336 -1.19218,-0.56336 -1.26909,-0.56335 -1.32086,-0.56336 -1.34316,-0.56336 -1.33292,-0.56336 -1.28846,-0.56336 -1.2095,-0.56336 -1.09718,-0.56336 -0.9539,-0.56336 -0.78336,-0.56335 -0.59042,-0.56336 -0.38105,-0.56336 -0.16209,-0.56336 0.0589,-0.56336 0.27428,-0.56336 0.47648,-0.56336 0.65882,-0.56335 0.81588,-0.56336 0.94394,-0.56336 1.04116,-0.56336 1.10756,-0.56336 1.14488,-0.56336 1.15601,-0.56336 1.14468,-0.56335 1.11482,-0.56336 1.07019,-0.56336 1.01413,-0.56336 0.94946,-0.56336 0.87851,-0.56336 0.8033,-0.56336 0.72571,-0.56335 0.64754,-0.56336 0.57061,-0.56336 0.49664,-0.56336 0.42716,-0.56336 0.36333,-0.56336 0.3059,-0.56336 0.25511,-0.56335 0.21082,-0.56336 0.17257,-0.56336 0.1397,-0.56336 0.11148,-0.56336 0.0872,-0.56336 0.0664,-0.56336 0.0483,-0.56336 0.0326,-0.56335 0.0188,-0.56336 0.006,-0.56336 -0.005,-0.56336 -0.017,-0.56336 -0.029,-0.56336 -0.0422,-0.56336 -0.0572,-0.56336 -0.0747,-0.56335 -0.095,-0.56336 -0.11853,-0.56336 -0.14532,-0.56336 -0.17514,-0.56336 -0.20744,-0.56336 -0.24128,-0.56335 -0.27541,-0.56336 -0.30823,-0.56336 -0.33797,-0.56336 -0.36274,-0.56336 -0.38067,-0.56336 -0.38993,-0.56336 -0.38901,-0.56335 -0.37656,-0.56336 -0.35171,-0.56336 -0.31406,-0.56336 -0.26389,-0.56336 -0.20226,-0.56336 -0.13114,-0.56336 -0.0534,-0.56336 0.0274,-0.56335 0.1071,-0.56336 0.1817,-0.56336 0.24746,-0.56336 0.30151,-0.56336 0.34206,-0.56336 0.36855,-0.56336 0.38154,-0.56336 0.38249,-0.56335 0.37343,-0.56336 0.35658,-0.56336 0.33413,-0.56336 0.30799,-0.56336 0.27969,-0.56336 0.2504,-0.56335 0.22104,-0.56336 0.19226,-0.56336 0.16461,-0.56336 0.13858,-0.56336 h 0.96698 v 0 l 0.13857,0.56336 0.16462,0.56336 0.19226,0.56336 0.22104,0.56336 0.2504,0.56335 0.27968,0.56336 0.30799,0.56336 0.33414,0.56336 0.35658,0.56336 0.37343,0.56336 0.38249,0.56335 0.38154,0.56336 0.36855,0.56336 0.34206,0.56336 0.3015,0.56336 0.24746,0.56336 0.1817,0.56336 0.10711,0.56336 0.0274,0.56335 -0.0534,0.56336 -0.13114,0.56336 -0.20226,0.56336 -0.26389,0.56336 -0.31406,0.56336 -0.35171,0.56336 -0.37656,0.56336 -0.38901,0.56335 -0.38994,0.56336 -0.38066,0.56336 -0.36274,0.56336 -0.33798,0.56336 -0.30823,0.56336 -0.2754,0.56336 -0.24128,0.56335 -0.20744,0.56336 -0.17514,0.56336 -0.14532,0.56336 -0.11854,0.56336 -0.095,0.56336 -0.0747,0.56335 -0.0572,0.56336 -0.0422,0.56336 -0.029,0.56336 -0.017,0.56336 -0.005,0.56336 0.006,0.56336 0.0188,0.56336 0.0326,0.56335 0.0483,0.56336 0.0664,0.56336 0.0872,0.56336 0.11148,0.56336 0.13969,0.56336 0.17258,0.56336 0.21082,0.56336 0.25511,0.56335 0.3059,0.56336 0.36333,0.56336 0.42716,0.56336 0.49664,0.56336 0.57061,0.56336 0.64754,0.56336 0.7257,0.56335 0.80331,0.56336 0.87851,0.56336 0.94946,0.56336 1.01413,0.56336 1.07019,0.56336 1.11481,0.56336 1.14469,0.56335 1.15601,0.56336 1.14487,0.56336 1.10757,0.56336 1.04116,0.56336 0.94394,0.56336 0.81588,0.56336 0.65881,0.56335 0.47649,0.56336 0.27428,0.56336 0.0589,0.56336 -0.1621,0.56336 -0.38104,0.56336 -0.59043,0.56336 -0.78335,0.56335 -0.9539,0.56336 -1.09718,0.56336 -1.20951,0.56336 -1.28845,0.56336 -1.33292,0.56336 -1.34316,0.56336 -1.32086,0.56336 -1.26909,0.56335 -1.19219,0.56336 -1.09544,0.56336 -0.98481,0.56336 -0.86641,0.56336 -0.74603,0.56336 -0.62882,0.56336 z"
         style="stroke:#000000" />
    </defs>
    <g
       clip-path="url(#pbefbd45709)"
       id="g15">
      <use
         xlink:href="#mdf40c0541c"
         x="0"
         y="413.86734"
         style="fill:#bab19e;stroke:#000000"
         id="use15" />
    </g>
  </g>
  <g
     id="FillBetweenPolyCollection_4"
     transform="translate(-4.1890148,-17.781353)">
    <defs
       id="defs16">
      <path
         id="mac1b0efb4a"
         d="m 299.9078,-189.48681 h -2.87214 l -0.50212,-0.98241 -0.61434,-0.98241 -0.72733,-0.9824 -0.83171,-0.98241 -0.91628,-0.9824 -0.9691,-0.98241 -0.97892,-0.98241 -0.93691,-0.9824 -0.8383,-0.98241 -0.68377,-0.98241 -0.48007,-0.9824 -0.23994,-0.98241 0.0191,-0.9824 0.27667,-0.98241 0.51188,-0.98241 0.70594,-0.9824 0.84424,-0.98241 0.91767,-0.98241 0.92318,-0.9824 0.86315,-0.98241 0.74437,-0.9824 0.57641,-0.98241 0.37035,-0.98241 0.13758,-0.9824 -0.11075,-0.98241 -0.36385,-0.98241 -0.6112,-0.9824 -0.84234,-0.98241 -1.04706,-0.9824 -1.21577,-0.98241 -1.34025,-0.98241 -1.41466,-0.9824 -1.43627,-0.98241 -1.40602,-0.98241 -1.32847,-0.9824 -1.21115,-0.98241 -1.06368,-0.98241 -0.89639,-0.9824 -0.71925,-0.98241 -0.54081,-0.9824 -0.36767,-0.98241 -0.20407,-0.98241 -0.0521,-0.9824 0.0885,-0.98241 0.21914,-0.98241 0.34281,-0.9824 0.46266,-0.98241 0.58156,-0.9824 0.70106,-0.98241 0.82095,-0.98241 0.93862,-0.9824 1.04937,-0.98241 1.14676,-0.98241 1.22378,-0.9824 1.27386,-0.98241 1.29218,-0.9824 1.27649,-0.98241 1.22749,-0.98241 1.14882,-0.9824 1.04639,-0.98241 0.92764,-0.98241 0.80045,-0.9824 0.67225,-0.98241 0.5493,-0.9824 0.43622,-0.98241 0.3357,-0.98241 0.24866,-0.9824 0.17437,-0.98241 0.11071,-0.98241 0.0546,-0.9824 0.002,-0.98241 -0.0502,-0.9824 -0.1068,-0.98241 -0.17104,-0.98241 -0.24545,-0.9824 -0.3313,-0.98241 -0.42801,-0.98241 -0.53288,-0.9824 -0.64083,-0.98241 -0.74449,-0.9824 -0.83455,-0.98241 -0.90057,-0.98241 -0.9322,-0.9824 -0.92043,-0.98241 -0.85923,-0.98241 -0.74673,-0.9824 -0.586,-0.98241 -0.3853,-0.9824 -0.1574,-0.98241 0.0817,-0.98241 0.31472,-0.9824 0.52506,-0.98241 0.69884,-0.98241 0.82643,-0.9824 0.90324,-0.98241 0.92982,-0.9824 0.9111,-0.98241 0.8554,-0.98241 0.77281,-0.9824 h 6.0753 v 0 l 0.77281,0.9824 0.85539,0.98241 0.91111,0.98241 0.92981,0.9824 0.90325,0.98241 0.82643,0.9824 0.69883,0.98241 0.52506,0.98241 0.31473,0.9824 0.0817,0.98241 -0.1574,0.98241 -0.38529,0.9824 -0.586,0.98241 -0.74673,0.9824 -0.85924,0.98241 -0.92043,0.98241 -0.93219,0.9824 -0.90058,0.98241 -0.83454,0.98241 -0.7445,0.9824 -0.64083,0.98241 -0.53288,0.9824 -0.42801,0.98241 -0.33129,0.98241 -0.24546,0.9824 -0.17103,0.98241 -0.1068,0.98241 -0.0502,0.9824 0.002,0.98241 0.0546,0.9824 0.11071,0.98241 0.17436,0.98241 0.24867,0.9824 0.3357,0.98241 0.43621,0.98241 0.54931,0.9824 0.67225,0.98241 0.80044,0.9824 0.92765,0.98241 1.04639,0.98241 1.14881,0.9824 1.2275,0.98241 1.27649,0.98241 1.29218,0.9824 1.27386,0.98241 1.22377,0.9824 1.14677,0.98241 1.04936,0.98241 0.93863,0.9824 0.82094,0.98241 0.70107,0.98241 0.58155,0.9824 0.46267,0.98241 0.3428,0.9824 0.21914,0.98241 0.0885,0.98241 -0.0521,0.9824 -0.20408,0.98241 -0.36766,0.98241 -0.54082,0.9824 -0.71924,0.98241 -0.89639,0.9824 -1.06368,0.98241 -1.21116,0.98241 -1.32847,0.9824 -1.40602,0.98241 -1.43627,0.98241 -1.41466,0.9824 -1.34025,0.98241 -1.21577,0.98241 -1.04706,0.9824 -0.84234,0.98241 -0.61119,0.9824 -0.36385,0.98241 -0.11075,0.98241 0.13757,0.9824 0.37036,0.98241 0.57641,0.98241 0.74436,0.9824 0.86316,0.98241 0.92318,0.9824 0.91767,0.98241 0.84423,0.98241 0.70595,0.9824 0.51188,0.98241 0.27667,0.98241 0.0191,0.9824 -0.23994,0.98241 -0.48008,0.9824 -0.68377,0.98241 -0.8383,0.98241 -0.93691,0.9824 -0.97892,0.98241 -0.9691,0.98241 -0.91627,0.9824 -0.83171,0.98241 -0.72734,0.9824 -0.61434,0.98241 z"
         style="stroke:#000000" />
    </defs>
    <g
       clip-path="url(#pbefbd45709)"
       id="g16">
      <use
         xlink:href="#mac1b0efb4a"
         x="0"
         y="413.86734"
         style="fill:#8f9491;stroke:#000000"
         id="use16" />
    </g>
  </g>
  <g
     id="FillBetweenPolyCollection_5"
     transform="translate(-4.1890148,-17.781353)">
    <defs
       id="defs17">
      <path
         id="meee84f9cdc"
         d="m 347.51765,-198.39444 h -0.91175 l -0.13774,-0.54981 -0.17309,-0.54981 -0.21591,-0.54982 -0.26647,-0.54981 -0.32446,-0.54981 -0.38865,-0.54981 -0.45689,-0.54981 -0.5261,-0.54982 -0.59246,-0.54981 -0.65167,-0.54981 -0.69951,-0.54981 -0.73235,-0.54981 -0.74778,-0.54981 -0.74488,-0.54982 -0.72443,-0.54981 -0.68874,-0.54981 -0.64118,-0.54981 -0.58567,-0.54981 -0.52604,-0.54981 -0.46553,-0.54982 -0.40643,-0.54981 -0.34997,-0.54981 -0.29646,-0.54981 -0.24558,-0.54981 -0.19702,-0.54981 -0.15079,-0.54982 -0.10767,-0.54981 -0.069,-0.54981 -0.0363,-0.54981 -0.0102,-0.54981 0.0101,-0.54982 0.0272,-0.54981 0.0459,-0.54981 0.0716,-0.54981 0.10951,-0.54981 0.16249,-0.54981 0.23018,-0.54982 0.30835,-0.54981 0.38926,-0.54981 0.46286,-0.54981 0.51854,-0.54981 0.54691,-0.54981 0.54112,-0.54982 0.4977,-0.54981 0.41659,-0.54981 0.30076,-0.54981 0.15547,-0.54981 -0.0124,-0.54981 -0.19469,-0.54982 -0.3826,-0.54981 -0.56663,-0.54981 -0.73699,-0.54981 -0.88417,-0.54981 -0.99958,-0.54982 -1.07647,-0.54981 -1.11042,-0.54981 -1.09998,-0.54981 -1.04651,-0.54981 -0.95403,-0.54981 -0.82877,-0.54982 -0.67863,-0.54981 -0.51274,-0.54981 -0.34088,-0.54981 -0.1728,-0.54981 -0.0175,-0.54981 0.11762,-0.54982 0.2275,-0.54981 0.30976,-0.54981 0.3649,-0.54981 0.39584,-0.54981 0.40748,-0.54981 0.40608,-0.54982 0.39851,-0.54981 0.39171,-0.54981 0.39199,-0.54981 0.40432,-0.54981 0.43181,-0.54982 0.47521,-0.54981 0.53298,-0.54981 0.60144,-0.54981 0.67554,-0.54981 0.74941,-0.54981 0.81725,-0.54982 0.87378,-0.54981 0.91468,-0.54981 0.93687,-0.54981 0.93865,-0.54981 0.91981,-0.54981 0.88162,-0.54982 0.82677,-0.54981 0.75902,-0.54981 0.68292,-0.54981 0.60318,-0.54981 0.52417,-0.54981 0.44949,-0.54982 0.38156,-0.54981 0.32159,-0.54981 0.26969,-0.54981 0.22516,-0.54981 h 1.65541 v 0 l 0.22516,0.54981 0.26969,0.54981 0.32159,0.54981 0.38156,0.54981 0.44949,0.54982 0.52418,0.54981 0.60317,0.54981 0.68292,0.54981 0.75902,0.54981 0.82677,0.54981 0.88162,0.54982 0.91981,0.54981 0.93866,0.54981 0.93687,0.54981 0.91468,0.54981 0.87377,0.54981 0.81725,0.54982 0.74941,0.54981 0.67554,0.54981 0.60145,0.54981 0.53297,0.54981 0.47522,0.54981 0.4318,0.54982 0.40432,0.54981 0.39199,0.54981 0.39171,0.54981 0.39851,0.54981 0.40608,0.54982 0.40749,0.54981 0.39583,0.54981 0.3649,0.54981 0.30977,0.54981 0.22749,0.54981 0.11763,0.54982 -0.0175,0.54981 -0.1728,0.54981 -0.34088,0.54981 -0.51275,0.54981 -0.67863,0.54981 -0.82876,0.54982 -0.95403,0.54981 -1.04651,0.54981 -1.09998,0.54981 -1.11043,0.54981 -1.07646,0.54981 -0.99959,0.54982 -0.88417,0.54981 -0.73699,0.54981 -0.56663,0.54981 -0.3826,0.54981 -0.19469,0.54982 -0.0124,0.54981 0.15547,0.54981 0.30076,0.54981 0.4166,0.54981 0.4977,0.54981 0.54112,0.54982 0.5469,0.54981 0.51855,0.54981 0.46285,0.54981 0.38926,0.54981 0.30836,0.54981 0.23018,0.54982 0.16248,0.54981 0.10952,0.54981 0.0716,0.54981 0.0459,0.54981 0.0272,0.54981 0.0101,0.54982 -0.0102,0.54981 -0.0363,0.54981 -0.069,0.54981 -0.10767,0.54981 -0.15079,0.54982 -0.19701,0.54981 -0.24559,0.54981 -0.29645,0.54981 -0.34998,0.54981 -0.40643,0.54981 -0.46552,0.54982 -0.52604,0.54981 -0.58567,0.54981 -0.64119,0.54981 -0.68874,0.54981 -0.72443,0.54981 -0.74488,0.54982 -0.74778,0.54981 -0.73235,0.54981 -0.6995,0.54981 -0.65167,0.54981 -0.59246,0.54981 -0.52611,0.54982 -0.45689,0.54981 -0.38864,0.54981 -0.32446,0.54981 -0.26648,0.54981 -0.2159,0.54982 -0.1731,0.54981 z"
         style="stroke:#000000" />
    </defs>
    <g
       clip-path="url(#pbefbd45709)"
       id="g17">
      <use
         xlink:href="#meee84f9cdc"
         x="0"
         y="413.86734"
         style="fill:#aaa395;stroke:#000000"
         id="use17" />
    </g>
  </g>
  <g
     id="FillBetweenPolyCollection_6"
     transform="translate(-4.1890148,-17.781353)">
    <defs
       id="defs18">
      <path
         id="m4e0a0fa074"
         d="m 399.13864,-203.70666 h -6.97363 l -0.92918,-0.70761 -1.05765,-0.70762 -1.16748,-0.70761 -1.24757,-0.70762 -1.28761,-0.70761 -1.27951,-0.70761 -1.2187,-0.70762 -1.1053,-0.70761 -0.94474,-0.70762 -0.74772,-0.70761 -0.52947,-0.70761 -0.30824,-0.70762 -0.10337,-0.70761 0.0671,-0.70762 0.18873,-0.70761 0.25241,-0.70761 0.25571,-0.70762 0.20311,-0.70761 0.10525,-0.70762 -0.0226,-0.70761 -0.16299,-0.70761 -0.29831,-0.70762 -0.4137,-0.70761 -0.49853,-0.70761 -0.54747,-0.70762 -0.56052,-0.70761 -0.54213,-0.70762 -0.49951,-0.70761 -0.4408,-0.70761 -0.37315,-0.70762 -0.30124,-0.70761 -0.22654,-0.70762 -0.14745,-0.70761 -0.06,-0.70761 0.0406,-0.70762 0.15848,-0.70761 0.29556,-0.70761 0.45039,-0.70762 0.61775,-0.70761 0.78874,-0.70762 0.95182,-0.70761 1.09395,-0.70761 1.2022,-0.70762 1.26527,-0.70761 1.27474,-0.70762 1.22582,-0.70761 1.11795,-0.70761 0.95466,-0.70762 0.74334,-0.70761 0.49466,-0.70762 0.22198,-0.70761 -0.0594,-0.70761 -0.33299,-0.70762 -0.58198,-0.70761 -0.79021,-0.70762 -0.94324,-0.70761 -1.02957,-0.70761 -1.04177,-0.70762 -0.97753,-0.70761 -0.84024,-0.70761 -0.63914,-0.70762 -0.38879,-0.70761 -0.10794,-0.70762 0.18218,-0.70761 0.45976,-0.70761 0.7045,-0.70762 0.89937,-0.70761 1.03187,-0.70762 1.09481,-0.70761 1.0863,-0.70761 1.00934,-0.70762 0.87097,-0.70761 0.68126,-0.70762 0.4525,-0.70761 0.19822,-0.70761 -0.0672,-0.70762 -0.32909,-0.70761 -0.57266,-0.70762 -0.7836,-0.70761 -0.94853,-0.70761 -1.0558,-0.70762 -1.09656,-0.70761 -1.06574,-0.70762 -0.96296,-0.70761 -0.79314,-0.70761 -0.5665,-0.70762 -0.29803,-0.70761 -0.006,-0.70761 0.28888,-0.70762 0.5672,-0.70761 0.81117,-0.70762 1.00703,-0.70761 1.14613,-0.70761 1.22528,-0.70762 1.24648,-0.70761 1.21612,-0.70762 1.14366,-0.70761 1.04035,-0.70761 0.91767,-0.70762 h 7.07175 v 0 l 0.91767,0.70762 1.04035,0.70761 1.14367,0.70761 1.21611,0.70762 1.24648,0.70761 1.22528,0.70762 1.14613,0.70761 1.00703,0.70761 0.81117,0.70762 0.56721,0.70761 0.28887,0.70762 -0.006,0.70761 -0.29804,0.70761 -0.5665,0.70762 -0.79314,0.70761 -0.96295,0.70761 -1.06575,0.70762 -1.09656,0.70761 -1.0558,0.70762 -0.94853,0.70761 -0.7836,0.70761 -0.57266,0.70762 -0.32908,0.70761 -0.0672,0.70762 0.19822,0.70761 0.4525,0.70761 0.68127,0.70762 0.87096,0.70761 1.00934,0.70762 1.08631,0.70761 1.09481,0.70761 1.03187,0.70762 0.89936,0.70761 0.7045,0.70762 0.45976,0.70761 0.18218,0.70761 -0.10794,0.70762 -0.38879,0.70761 -0.63914,0.70762 -0.84024,0.70761 -0.97753,0.70761 -1.04177,0.70762 -1.02957,0.70761 -0.94324,0.70761 -0.79021,0.70762 -0.58198,0.70761 -0.33299,0.70762 -0.0594,0.70761 0.22198,0.70761 0.49466,0.70762 0.74334,0.70761 0.95466,0.70762 1.11795,0.70761 1.22583,0.70761 1.27473,0.70762 1.26528,0.70761 1.20219,0.70762 1.09395,0.70761 0.95182,0.70761 0.78874,0.70762 0.61775,0.70761 0.4504,0.70762 0.29555,0.70761 0.15848,0.70761 0.0406,0.70762 -0.06,0.70761 -0.14745,0.70761 -0.22654,0.70762 -0.30123,0.70761 -0.37316,0.70762 -0.4408,0.70761 -0.49951,0.70761 -0.54213,0.70762 -0.56052,0.70761 -0.54747,0.70762 -0.49853,0.70761 -0.4137,0.70761 -0.29831,0.70762 -0.16298,0.70761 -0.0226,0.70761 0.10524,0.70762 0.20311,0.70761 0.25571,0.70762 0.25241,0.70761 0.18874,0.70761 0.0671,0.70762 -0.10337,0.70761 -0.30824,0.70762 -0.52947,0.70761 -0.74772,0.70761 -0.94474,0.70762 -1.1053,0.70761 -1.2187,0.70762 -1.27951,0.70761 -1.28761,0.70761 -1.24757,0.70762 -1.16748,0.70761 -1.05765,0.70762 z"
         style="stroke:#000000" />
    </defs>
    <g
       clip-path="url(#pbefbd45709)"
       id="g18">
      <use
         xlink:href="#m4e0a0fa074"
         x="0"
         y="413.86734"
         style="fill:#b58986;stroke:#000000"
         id="use18" />
    </g>
  </g>
  <g
     id="FillBetweenPolyCollection_7"
     transform="translate(-4.1890148,-17.781353)">
    <defs
       id="defs19">
      <path
         id="m37443c15c8"
         d="m 494.59435,-149.32704 h -3.52485 l -0.49624,-0.73449 -0.5904,-0.73449 -0.68806,-0.73449 -0.78509,-0.73449 -0.8765,-0.73449 -0.95692,-0.73449 -1.02083,-0.73449 -1.06325,-0.73449 -1.08019,-0.73448 -1.06923,-0.73449 -1.02977,-0.73449 -0.9634,-0.73449 -0.87366,-0.73449 -0.76584,-0.73449 -0.64631,-0.73449 -0.52188,-0.73449 -0.39889,-0.73449 -0.28256,-0.73449 -0.17632,-0.73448 -0.0816,-0.73449 0.002,-0.73449 0.078,-0.73449 0.14875,-0.73449 0.21868,-0.73449 0.29137,-0.73449 0.36932,-0.73449 0.45349,-0.73449 0.54296,-0.73448 0.63516,-0.73449 0.72604,-0.73449 0.81069,-0.73449 0.88398,-0.73449 0.94113,-0.73449 0.97843,-0.73449 0.99348,-0.73449 0.98554,-0.73449 0.9555,-0.73449 0.90571,-0.73448 0.83965,-0.73449 0.7615,-0.73449 0.67578,-0.73449 0.58683,-0.73449 0.49856,-0.73449 0.41408,-0.73449 0.33568,-0.73449 0.26469,-0.73449 0.20154,-0.73448 0.14589,-0.73449 0.0967,-0.73449 0.0527,-0.73449 0.0119,-0.73449 -0.0276,-0.73449 -0.0676,-0.73449 -0.11001,-0.73449 -0.15639,-0.73449 -0.20807,-0.73449 -0.26597,-0.73448 -0.33063,-0.73449 -0.40217,-0.73449 -0.48024,-0.73449 -0.56407,-0.73449 -0.65241,-0.73449 -0.74362,-0.73449 -0.83558,-0.73449 -0.92573,-0.73449 -1.0111,-0.73448 -1.08825,-0.73449 -1.1534,-0.73449 -1.20248,-0.73449 -1.2313,-0.73449 -1.2358,-0.73449 -1.2123,-0.73449 -1.15792,-0.73449 -1.07088,-0.73449 -0.95083,-0.73449 -0.79915,-0.73448 -0.61903,-0.73449 -0.4154,-0.73449 -0.19484,-0.73449 0.035,-0.73449 0.26548,-0.73449 0.48816,-0.73449 0.69482,-0.73449 0.87831,-0.73449 1.03282,-0.73448 1.15431,-0.73449 1.24059,-0.73449 1.29127,-0.73449 1.30767,-0.73449 1.29257,-0.73449 1.24984,-0.73449 1.18414,-0.73449 1.10054,-0.73449 1.00424,-0.73449 0.90022,-0.73448 0.7931,-0.73449 0.68686,-0.73449 0.58485,-0.73449 0.48963,-0.73449 h 3.5233 v 0 l 0.48964,0.73449 0.58485,0.73449 0.68686,0.73449 0.7931,0.73449 0.90022,0.73448 1.00424,0.73449 1.10054,0.73449 1.18414,0.73449 1.24983,0.73449 1.29257,0.73449 1.30768,0.73449 1.29126,0.73449 1.24059,0.73449 1.15432,0.73449 1.03282,0.73448 0.87831,0.73449 0.69482,0.73449 0.48816,0.73449 0.26548,0.73449 0.0349,0.73449 -0.19483,0.73449 -0.41541,0.73449 -0.61902,0.73449 -0.79915,0.73448 -0.95084,0.73449 -1.07087,0.73449 -1.15792,0.73449 -1.2123,0.73449 -1.2358,0.73449 -1.23131,0.73449 -1.20248,0.73449 -1.1534,0.73449 -1.08824,0.73449 -1.0111,0.73448 -0.92573,0.73449 -0.83558,0.73449 -0.74362,0.73449 -0.65242,0.73449 -0.56406,0.73449 -0.48024,0.73449 -0.40217,0.73449 -0.33063,0.73449 -0.26597,0.73448 -0.20807,0.73449 -0.1564,0.73449 -0.11,0.73449 -0.0676,0.73449 -0.0276,0.73449 0.0119,0.73449 0.0527,0.73449 0.0967,0.73449 0.14589,0.73449 0.20154,0.73448 0.26469,0.73449 0.33568,0.73449 0.41408,0.73449 0.49856,0.73449 0.58683,0.73449 0.67578,0.73449 0.7615,0.73449 0.83964,0.73449 0.90572,0.73448 0.9555,0.73449 0.98554,0.73449 0.99348,0.73449 0.97842,0.73449 0.94114,0.73449 0.88398,0.73449 0.81069,0.73449 0.72604,0.73449 0.63516,0.73449 0.54296,0.73448 0.45348,0.73449 0.36933,0.73449 0.29137,0.73449 0.21868,0.73449 0.14874,0.73449 0.078,0.73449 0.002,0.73449 -0.0816,0.73449 -0.17633,0.73448 -0.28255,0.73449 -0.39889,0.73449 -0.52188,0.73449 -0.64631,0.73449 -0.76584,0.73449 -0.87366,0.73449 -0.9634,0.73449 -1.02978,0.73449 -1.06922,0.73449 -1.08019,0.73448 -1.06325,0.73449 -1.02083,0.73449 -0.95692,0.73449 -0.87651,0.73449 -0.78508,0.73449 -0.68806,0.73449 -0.5904,0.73449 z"
         style="stroke:#000000" />
    </defs>
    <g
       clip-path="url(#pbefbd45709)"
       id="g19">
      <use
         xlink:href="#m37443c15c8"
         x="0"
         y="413.86734"
         style="fill:#d2a9b3;stroke:#000000"
         id="use19" />
    </g>
  </g>
  <g
     id="FillBetweenPolyCollection_8"
     transform="translate(-4.1890148,-17.781353)">
    <defs
       id="defs20">
      <path
         id="m375ec1c8dc"
         d="m 544.3573,-209.35707 h -5.87065 l -0.75252,-0.28314 -0.87179,-0.28315 -0.99117,-0.28314 -1.1056,-0.28315 -1.20919,-0.28315 -1.29539,-0.28314 -1.35738,-0.28315 -1.38851,-0.28315 -1.38296,-0.28314 -1.33644,-0.28315 -1.24673,-0.28315 -1.11428,-0.28314 -0.94226,-0.28315 -0.7366,-0.28315 -0.50542,-0.28314 -0.25842,-0.28315 -0.006,-0.28315 0.24143,-0.28314 0.47457,-0.28315 0.68538,-0.28315 0.86768,-0.28314 1.01716,-0.28315 1.13137,-0.28315 1.20953,-0.28314 1.25235,-0.28315 1.26172,-0.28315 1.24047,-0.28314 1.19215,-0.28315 1.12069,-0.28315 1.03016,-0.28314 0.92448,-0.28315 0.80719,-0.28315 0.68125,-0.28314 0.54893,-0.28315 0.41188,-0.28315 0.27126,-0.28314 0.12791,-0.28315 -0.0172,-0.28315 -0.16291,-0.28314 -0.30713,-0.28315 -0.44702,-0.28314 -0.57879,-0.28315 -0.69766,-0.28315 -0.79822,-0.28314 -0.87476,-0.28315 -0.92185,-0.28315 -0.93491,-0.28314 -0.91091,-0.28315 -0.8489,-0.28315 -0.75055,-0.28314 -0.62019,-0.28315 -0.46486,-0.28315 -0.29376,-0.28314 -0.11763,-0.28315 0.0523,-0.28315 0.2053,-0.28314 0.33224,-0.28315 0.42635,-0.28315 0.48395,-0.28314 0.50454,-0.28315 0.49074,-0.28315 0.44788,-0.28314 0.38318,-0.28315 0.30498,-0.28315 0.22179,-0.28314 0.14154,-0.28315 0.0709,-0.28315 0.0149,-0.28314 -0.0232,-0.28315 -0.0421,-0.28315 -0.0419,-0.28314 -0.0241,-0.28315 0.009,-0.28315 0.0536,-0.28314 0.10703,-0.28315 0.16548,-0.28314 0.22566,-0.28315 0.28456,-0.28315 0.33972,-0.28314 0.38911,-0.28315 0.43134,-0.28315 0.46542,-0.28314 0.49074,-0.28315 0.50697,-0.28315 0.51395,-0.28314 0.51175,-0.28315 0.50061,-0.28315 0.48107,-0.28314 0.454,-0.28315 0.42062,-0.28315 0.38248,-0.28314 0.34134,-0.28315 0.29904,-0.28315 0.25734,-0.28314 0.21775,-0.28315 0.18142,-0.28315 0.14909,-0.28314 0.12108,-0.28315 0.0974,-0.28315 h 0.67801 v 0 l 0.0974,0.28315 0.12108,0.28315 0.14909,0.28314 0.18142,0.28315 0.21775,0.28315 0.25734,0.28314 0.29904,0.28315 0.34134,0.28315 0.38247,0.28314 0.42062,0.28315 0.454,0.28315 0.48108,0.28314 0.50061,0.28315 0.51175,0.28315 0.51395,0.28314 0.50696,0.28315 0.49074,0.28315 0.46542,0.28314 0.43134,0.28315 0.38912,0.28315 0.33971,0.28314 0.28457,0.28315 0.22566,0.28315 0.16548,0.28314 0.10702,0.28315 0.0536,0.28314 0.009,0.28315 -0.0241,0.28315 -0.0419,0.28314 -0.0421,0.28315 -0.0232,0.28315 0.0149,0.28314 0.0709,0.28315 0.14155,0.28315 0.22178,0.28314 0.30498,0.28315 0.38318,0.28315 0.44789,0.28314 0.49074,0.28315 0.50453,0.28315 0.48395,0.28314 0.42636,0.28315 0.33223,0.28315 0.20531,0.28314 0.0523,0.28315 -0.11763,0.28315 -0.29377,0.28314 -0.46485,0.28315 -0.62019,0.28315 -0.75055,0.28314 -0.84891,0.28315 -0.9109,0.28315 -0.93491,0.28314 -0.92185,0.28315 -0.87477,0.28315 -0.79821,0.28314 -0.69766,0.28315 -0.57879,0.28315 -0.44703,0.28314 -0.30712,0.28315 -0.16291,0.28314 -0.0172,0.28315 0.12791,0.28315 0.27125,0.28314 0.41189,0.28315 0.54893,0.28315 0.68124,0.28314 0.8072,0.28315 0.92448,0.28315 1.03016,0.28314 1.12069,0.28315 1.19215,0.28315 1.24047,0.28314 1.26171,0.28315 1.25235,0.28315 1.20954,0.28314 1.13136,0.28315 1.01717,0.28315 0.86768,0.28314 0.68538,0.28315 0.47456,0.28315 0.24143,0.28314 -0.006,0.28315 -0.25842,0.28315 -0.50541,0.28314 -0.7366,0.28315 -0.94227,0.28315 -1.11427,0.28314 -1.24674,0.28315 -1.33643,0.28315 -1.38296,0.28314 -1.38851,0.28315 -1.35738,0.28315 -1.2954,0.28314 -1.20919,0.28315 -1.1056,0.28315 -0.99117,0.28314 -0.87178,0.28315 z"
         style="stroke:#000000" />
    </defs>
    <g
       clip-path="url(#pbefbd45709)"
       id="g20">
      <use
         xlink:href="#m375ec1c8dc"
         x="0"
         y="413.86734"
         style="fill:#8380bc;stroke:#000000"
         id="use20" />
    </g>
  </g>
  <g
     id="FillBetweenPolyCollection_9"
     transform="translate(-4.1890148,-17.781353)">
    <defs
       id="defs21">
      <path
         id="m76db17b21e"
         d="m 591.79909,-252.03811 h -3.57414 l -0.39389,-0.72699 -0.44873,-0.72699 -0.50309,-0.72699 -0.55486,-0.72699 -0.60173,-0.727 -0.64139,-0.72699 -0.67162,-0.72699 -0.69059,-0.72699 -0.69699,-0.727 -0.69012,-0.72699 -0.67012,-0.72699 -0.63791,-0.72699 -0.59512,-0.727 -0.54405,-0.72699 -0.48734,-0.72699 -0.42777,-0.72699 -0.36795,-0.727 -0.31003,-0.72699 -0.25549,-0.72699 -0.20498,-0.72699 -0.1583,-0.72699 -0.11439,-0.727 -0.0716,-0.72699 -0.028,-0.72699 0.0186,-0.72699 0.0699,-0.727 0.12706,-0.72699 0.19053,-0.72699 0.25974,-0.72699 0.33319,-0.727 0.40855,-0.72699 0.4829,-0.72699 0.55293,-0.72699 0.61537,-0.727 0.66723,-0.72699 0.70609,-0.72699 0.73035,-0.72699 0.73925,-0.72699 0.73302,-0.727 0.71264,-0.72699 0.6799,-0.72699 0.63698,-0.72699 0.58644,-0.727 0.53088,-0.72699 0.47282,-0.72699 0.41452,-0.72699 0.35786,-0.727 0.30436,-0.72699 0.25508,-0.72699 0.21068,-0.72699 0.17145,-0.727 0.13739,-0.72699 0.10822,-0.72699 0.0835,-0.72699 0.0625,-0.727 0.0446,-0.72699 0.029,-0.72699 0.0145,-0.72699 2.7e-4,-0.72699 -0.0149,-0.727 -0.0324,-0.72699 -0.0536,-0.72699 -0.0801,-0.72699 -0.11358,-0.727 -0.15574,-0.72699 -0.20829,-0.72699 -0.27272,-0.72699 -0.35019,-0.727 -0.44128,-0.72699 -0.54575,-0.72699 -0.66235,-0.72699 -0.78855,-0.72699 -0.92051,-0.727 -1.05291,-0.72699 -1.17914,-0.72699 -1.29151,-0.727 -1.38171,-0.72699 -1.44132,-0.72699 -1.46251,-0.72699 -1.43885,-0.72699 -1.36587,-0.727 -1.24186,-0.72699 -1.06818,-0.72699 -0.84945,-0.72699 -0.59345,-0.727 -0.31067,-0.72699 -0.0136,-0.72699 0.28406,-0.72699 0.56879,-0.727 0.82787,-0.72699 1.05058,-0.72699 1.22884,-0.72699 1.35767,-0.72699 1.43541,-0.727 1.46351,-0.72699 1.44612,-0.72699 1.3896,-0.72699 1.30165,-0.727 1.19069,-0.72699 h 11.78247 v 0 l 1.19068,0.72699 1.30165,0.727 1.3896,0.72699 1.44613,0.72699 1.4635,0.72699 1.43541,0.727 1.35768,0.72699 1.22883,0.72699 1.05059,0.72699 0.82787,0.72699 0.56878,0.727 0.28406,0.72699 -0.0136,0.72699 -0.31068,0.72699 -0.59345,0.727 -0.84944,0.72699 -1.06818,0.72699 -1.24187,0.72699 -1.36587,0.727 -1.43884,0.72699 -1.46252,0.72699 -1.44132,0.72699 -1.38171,0.72699 -1.29151,0.727 -1.17913,0.72699 -1.05291,0.72699 -0.92051,0.727 -0.78856,0.72699 -0.66234,0.72699 -0.54575,0.72699 -0.44128,0.72699 -0.3502,0.727 -0.27272,0.72699 -0.20828,0.72699 -0.15574,0.72699 -0.11358,0.727 -0.0801,0.72699 -0.0536,0.72699 -0.0324,0.72699 -0.0149,0.727 2.8e-4,0.72699 0.0145,0.72699 0.0289,0.72699 0.0446,0.72699 0.0625,0.727 0.0835,0.72699 0.10821,0.72699 0.13739,0.72699 0.17145,0.727 0.21068,0.72699 0.25508,0.72699 0.30436,0.72699 0.35787,0.727 0.41451,0.72699 0.47283,0.72699 0.53088,0.72699 0.58644,0.727 0.63698,0.72699 0.67989,0.72699 0.71265,0.72699 0.73301,0.727 0.73926,0.72699 0.73034,0.72699 0.70609,0.72699 0.66723,0.72699 0.61537,0.727 0.55294,0.72699 0.48289,0.72699 0.40856,0.72699 0.33318,0.727 0.25974,0.72699 0.19054,0.72699 0.12706,0.72699 0.0699,0.727 0.0186,0.72699 -0.028,0.72699 -0.0716,0.72699 -0.11439,0.727 -0.1583,0.72699 -0.20499,0.72699 -0.25549,0.72699 -0.31003,0.72699 -0.36794,0.727 -0.42777,0.72699 -0.48734,0.72699 -0.54405,0.72699 -0.59513,0.727 -0.6379,0.72699 -0.67012,0.72699 -0.69013,0.72699 -0.69698,0.727 -0.6906,0.72699 -0.67162,0.72699 -0.64138,0.72699 -0.60173,0.727 -0.55486,0.72699 -0.5031,0.72699 -0.44873,0.72699 z"
         style="stroke:#000000" />
    </defs>
    <g
       clip-path="url(#pbefbd45709)"
       id="g21">
      <use
         xlink:href="#m76db17b21e"
         x="0"
         y="413.86734"
         style="fill:#e9d0a2;stroke:#000000"
         id="use21" />
    </g>
  </g>
  <g
     id="FillBetweenPolyCollection_10"
     transform="translate(44.401043,-17.781353)">
    <defs
       id="defs22">
      <path
         id="mde2510ef1e"
         d="m 688.38743,-170.19002 h -2.39061 l -0.39791,-0.75507 -0.48312,-0.75507 -0.57084,-0.75507 -0.6555,-0.75508 -0.7304,-0.75507 -0.78834,-0.75507 -0.82265,-0.75507 -0.82821,-0.75507 -0.8022,-0.75507 -0.74439,-0.75508 -0.65692,-0.75507 -0.5437,-0.75507 -0.40983,-0.75507 -0.26108,-0.75507 -0.10388,-0.75508 0.0547,-0.75507 0.20679,-0.75507 0.34369,-0.75507 0.4566,-0.75507 0.53731,-0.75507 0.57945,-0.75508 0.57935,-0.75507 0.53682,-0.75507 0.45524,-0.75507 0.3412,-0.75507 0.20354,-0.75507 0.0524,-0.75508 -0.10197,-0.75507 -0.25014,-0.75507 -0.38408,-0.75507 -0.49761,-0.75507 -0.58663,-0.75507 -0.64918,-0.75508 -0.68558,-0.75507 -0.69814,-0.75507 -0.69078,-0.75507 -0.66823,-0.75507 -0.635,-0.75508 -0.5943,-0.75507 -0.54739,-0.75507 -0.49333,-0.75507 -0.42957,-0.75507 -0.35311,-0.75507 -0.26195,-0.75508 -0.15648,-0.75507 -0.0405,-0.75507 0.079,-0.75507 0.19199,-0.75507 0.28756,-0.75507 0.35531,-0.75508 0.38726,-0.75507 0.37909,-0.75507 0.33062,-0.75507 0.24545,-0.75507 0.13003,-0.75508 -0.008,-0.75507 -0.15895,-0.75507 -0.31547,-0.75507 -0.4689,-0.75507 -0.61084,-0.75507 -0.73238,-0.75508 -0.82396,-0.75507 -0.87595,-0.75507 -0.8797,-0.75507 -0.82905,-0.75507 -0.7218,-0.75507 -0.5607,-0.75508 -0.35355,-0.75507 -0.11234,-0.75507 0.14819,-0.75507 0.4125,-0.75507 0.66591,-0.75508 0.89585,-0.75507 1.09263,-0.75507 1.24952,-0.75507 1.3626,-0.75507 1.43046,-0.75507 1.4538,-0.75508 1.43518,-0.75507 1.37886,-0.75507 1.29062,-0.75507 1.17749,-0.75507 1.04747,-0.75507 0.90881,-0.75508 0.76942,-0.75507 0.63611,-0.75507 0.51402,-0.75507 0.40642,-0.75507 0.31473,-0.75507 0.23883,-0.75508 0.1775,-0.75507 0.12904,-0.75507 0.0915,-0.75507 0.063,-0.75507 0.0419,-0.75508 0.027,-0.75507 0.0169,-0.75507 0.0105,-0.75507 0.007,-0.75507 h 0.0846 v 0 l 0.007,0.75507 0.0105,0.75507 0.0169,0.75507 0.027,0.75507 0.0419,0.75508 0.063,0.75507 0.0915,0.75507 0.12904,0.75507 0.17751,0.75507 0.23882,0.75508 0.31473,0.75507 0.40642,0.75507 0.51402,0.75507 0.63611,0.75507 0.76942,0.75507 0.90881,0.75508 1.04747,0.75507 1.1775,0.75507 1.29061,0.75507 1.37886,0.75507 1.43518,0.75507 1.4538,0.75508 1.43046,0.75507 1.3626,0.75507 1.24952,0.75507 1.09263,0.75507 0.89586,0.75507 0.6659,0.75508 0.4125,0.75507 0.14819,0.75507 -0.11234,0.75507 -0.35355,0.75507 -0.5607,0.75508 -0.7218,0.75507 -0.82905,0.75507 -0.8797,0.75507 -0.87595,0.75507 -0.82396,0.75507 -0.73237,0.75508 -0.61085,0.75507 -0.4689,0.75507 -0.31547,0.75507 -0.15895,0.75507 -0.008,0.75507 0.13003,0.75508 0.24545,0.75507 0.33062,0.75507 0.37909,0.75507 0.38726,0.75507 0.35531,0.75508 0.28756,0.75507 0.19199,0.75507 0.079,0.75507 -0.0405,0.75507 -0.15648,0.75507 -0.26194,0.75508 -0.35312,0.75507 -0.42957,0.75507 -0.49333,0.75507 -0.54738,0.75507 -0.59431,0.75507 -0.63499,0.75508 -0.66824,0.75507 -0.69078,0.75507 -0.69814,0.75507 -0.68558,0.75507 -0.64918,0.75508 -0.58663,0.75507 -0.49761,0.75507 -0.38408,0.75507 -0.25014,0.75507 -0.10197,0.75507 0.0524,0.75508 0.20355,0.75507 0.34119,0.75507 0.45524,0.75507 0.53683,0.75507 0.57934,0.75507 0.57945,0.75508 0.53731,0.75507 0.4566,0.75507 0.34369,0.75507 0.20679,0.75507 0.0547,0.75507 -0.10388,0.75508 -0.26108,0.75507 -0.40983,0.75507 -0.5437,0.75507 -0.65692,0.75507 -0.74439,0.75508 -0.8022,0.75507 -0.82821,0.75507 -0.82265,0.75507 -0.78834,0.75507 -0.7304,0.75507 -0.6555,0.75508 -0.57084,0.75507 -0.48311,0.75507 z"
         style="stroke:#000000" />
    </defs>
    <g
       clip-path="url(#pbefbd45709)"
       id="g22">
      <use
         xlink:href="#mde2510ef1e"
         x="0"
         y="413.86734"
         style="fill:#7d59c2;stroke:#000000"
         id="use22" />
    </g>
  </g>
  <g
     id="FillBetweenPolyCollection_11"
     transform="translate(44.401043,-17.781353)">
    <defs
       id="defs23">
      <path
         id="mcac5ecacdc"
         d="m 735.83236,-137.1972 h -0.10038 l -0.0126,-0.38499 -0.0183,-0.38499 -0.0278,-0.385 -0.0412,-0.38499 -0.0584,-0.385 -0.0793,-0.38499 -0.10438,-0.38499 -0.13509,-0.385 -0.17338,-0.38499 -0.22043,-0.38499 -0.27536,-0.385 -0.33467,-0.38499 -0.39359,-0.385 -0.4491,-0.38499 -0.50294,-0.38499 -0.56194,-0.385 -0.6345,-0.38499 -0.7247,-0.38499 -0.82742,-0.385 -0.92839,-0.38499 -1.00923,-0.385 -1.05517,-0.38499 -1.06043,-0.38499 -1.02892,-0.385 -0.97076,-0.38499 -0.89729,-0.38499 -0.81748,-0.385 -0.73684,-0.38499 -0.65847,-0.385 -0.58508,-0.38499 -0.52067,-0.38499 -0.47093,-0.385 -0.44161,-0.38499 -0.43536,-0.38499 -0.44786,-0.385 -0.46497,-0.38499 -0.46303,-0.385 -0.41422,-0.38499 -0.29687,-0.38499 -0.10701,-0.385 0.13518,-0.38499 0.38931,-0.38499 0.60948,-0.385 0.76328,-0.38499 0.84441,-0.385 0.87231,-0.38499 0.87881,-0.38499 0.88987,-0.385 0.91307,-0.38499 0.93661,-0.38499 0.93936,-0.385 0.90402,-0.38499 0.82617,-0.385 0.71449,-0.38499 0.5846,-0.38499 0.4517,-0.385 0.32668,-0.38499 0.2168,-0.38499 0.12849,-0.385 0.0686,-0.38499 0.0423,-0.385 0.0496,-0.38499 0.0834,-0.38499 0.1312,-0.385 0.18042,-0.38499 0.22274,-0.38499 0.25556,-0.385 0.28017,-0.38499 0.29867,-0.385 0.31225,-0.38499 0.32124,-0.38499 0.32572,-0.385 0.32589,-0.38499 0.32212,-0.385 0.31505,-0.38499 0.30571,-0.38499 0.2955,-0.385 0.28558,-0.38499 0.27615,-0.38499 0.26631,-0.385 0.25467,-0.38499 0.24052,-0.385 0.22432,-0.38499 0.20724,-0.38499 0.19004,-0.385 0.17243,-0.38499 0.15351,-0.38499 0.13274,-0.385 0.1109,-0.38499 0.0899,-0.385 0.0719,-0.38499 0.0579,-0.38499 0.0477,-0.385 0.0397,-0.38499 0.0327,-0.38499 0.0258,-0.385 0.0195,-0.38499 0.0145,-0.385 0.0111,-0.38499 h 0.10038 v 0 l 0.0111,0.38499 0.0145,0.385 0.0195,0.38499 0.0258,0.385 0.0327,0.38499 0.0397,0.38499 0.0477,0.385 0.0579,0.38499 0.0719,0.38499 0.0899,0.385 0.1109,0.38499 0.13274,0.385 0.15351,0.38499 0.17243,0.38499 0.19004,0.385 0.20724,0.38499 0.22432,0.38499 0.24052,0.385 0.25467,0.38499 0.26631,0.385 0.27615,0.38499 0.28558,0.38499 0.2955,0.385 0.30571,0.38499 0.31505,0.38499 0.32212,0.385 0.32589,0.38499 0.32572,0.385 0.32124,0.38499 0.31225,0.38499 0.29866,0.385 0.28018,0.38499 0.25556,0.385 0.22273,0.38499 0.18043,0.38499 0.1312,0.385 0.0833,0.38499 0.0496,0.38499 0.0422,0.385 0.0686,0.38499 0.12849,0.385 0.2168,0.38499 0.32667,0.38499 0.45171,0.385 0.5846,0.38499 0.71449,0.38499 0.82617,0.385 0.90402,0.38499 0.93935,0.385 0.93662,0.38499 0.91307,0.38499 0.88987,0.385 0.87881,0.38499 0.87231,0.38499 0.84441,0.385 0.76327,0.38499 0.60949,0.385 0.3893,0.38499 0.13519,0.38499 -0.10701,0.385 -0.29687,0.38499 -0.41422,0.38499 -0.46303,0.385 -0.46497,0.38499 -0.44786,0.385 -0.43536,0.38499 -0.44161,0.38499 -0.47093,0.385 -0.52067,0.38499 -0.58508,0.38499 -0.65847,0.385 -0.73684,0.38499 -0.81748,0.385 -0.89729,0.38499 -0.97076,0.38499 -1.02892,0.385 -1.06043,0.38499 -1.05517,0.38499 -1.00923,0.385 -0.92839,0.38499 -0.82743,0.385 -0.72469,0.38499 -0.6345,0.38499 -0.56194,0.385 -0.50294,0.38499 -0.4491,0.38499 -0.39359,0.385 -0.33467,0.38499 -0.27536,0.385 -0.22043,0.38499 -0.17338,0.38499 -0.13509,0.385 -0.10438,0.38499 -0.0793,0.38499 -0.0585,0.385 -0.0412,0.38499 -0.0278,0.385 -0.0183,0.38499 z"
         style="stroke:#000000" />
    </defs>
    <g
       clip-path="url(#pbefbd45709)"
       id="g23">
      <use
         xlink:href="#mcac5ecacdc"
         x="0"
         y="413.86734"
         style="fill:#bca4c0;stroke:#000000"
         id="use23" />
    </g>
  </g>
  <g
     id="FillBetweenPolyCollection_12"
     transform="translate(-101.36949,-17.781353)">
    <defs
       id="defs24">
      <path
         id="m9e9b985379"
         d="m 784.91413,-306.51065 h -1.08383 l -0.16774,-0.72519 -0.20603,-0.7252 -0.24944,-0.72519 -0.29735,-0.72519 -0.3488,-0.72519 -0.40255,-0.7252 -0.45737,-0.72519 -0.5123,-0.72519 -0.56679,-0.7252 -0.62071,-0.72519 -0.67419,-0.72519 -0.72737,-0.72519 -0.78005,-0.7252 -0.8315,-0.72519 -0.88022,-0.72519 -0.92394,-0.72519 -0.95977,-0.7252 -0.98434,-0.72519 -0.99425,-0.72519 -0.98652,-0.72519 -0.95926,-0.7252 -0.91222,-0.72519 -0.84711,-0.72519 -0.76755,-0.72519 -0.67831,-0.7252 -0.5843,-0.72519 -0.48954,-0.72519 -0.39627,-0.7252 -0.3051,-0.72519 -0.21554,-0.72519 -0.12717,-0.72519 -0.0405,-0.7252 0.0426,-0.72519 0.11935,-0.72519 0.18695,-0.7252 0.24362,-0.72519 0.28942,-0.72519 0.32617,-0.72519 0.35691,-0.72519 0.38485,-0.7252 0.41241,-0.72519 0.44076,-0.72519 0.4698,-0.7252 0.49889,-0.72519 0.52762,-0.72519 0.55642,-0.72519 0.58675,-0.7252 0.62052,-0.72519 0.65916,-0.72519 0.70253,-0.72519 0.74831,-0.7252 0.7921,-0.72519 0.82812,-0.72519 0.85048,-0.7252 0.85448,-0.72519 0.8374,-0.72519 0.79886,-0.72519 0.74051,-0.72519 0.66531,-0.7252 0.57679,-0.72519 0.47823,-0.72519 0.37239,-0.7252 0.26136,-0.72519 0.1468,-0.72519 0.0304,-0.72519 -0.0855,-0.7252 -0.1979,-0.72519 -0.30251,-0.72519 -0.39425,-0.72519 -0.46776,-0.7252 -0.5182,-0.72519 -0.54217,-0.72519 -0.53847,-0.7252 -0.5084,-0.72519 -0.45553,-0.72519 -0.3851,-0.72519 -0.30286,-0.7252 -0.21423,-0.72519 -0.12338,-0.72519 -0.033,-0.72519 0.0556,-0.7252 0.14176,-0.72519 0.22511,-0.72519 0.30469,-0.72519 0.37869,-0.7252 0.44456,-0.72519 0.49932,-0.72519 0.54015,-0.72519 0.56493,-0.7252 0.57275,-0.72519 0.56404,-0.72519 0.54057,-0.7252 0.50515,-0.72519 0.46116,-0.72519 0.41208,-0.72519 0.36114,-0.7252 0.3109,-0.72519 0.26322,-0.72519 0.21927,-0.72519 h 1.46788 v 0 l 0.21927,0.72519 0.26322,0.72519 0.3109,0.72519 0.36114,0.7252 0.41208,0.72519 0.46116,0.72519 0.50514,0.72519 0.54058,0.7252 0.56404,0.72519 0.57275,0.72519 0.56493,0.7252 0.54015,0.72519 0.49932,0.72519 0.44456,0.72519 0.37869,0.7252 0.30469,0.72519 0.22511,0.72519 0.14176,0.72519 0.0556,0.7252 -0.033,0.72519 -0.12338,0.72519 -0.21423,0.72519 -0.30286,0.7252 -0.3851,0.72519 -0.45554,0.72519 -0.50839,0.72519 -0.53848,0.7252 -0.54216,0.72519 -0.5182,0.72519 -0.46776,0.7252 -0.39425,0.72519 -0.30251,0.72519 -0.19791,0.72519 -0.0855,0.7252 0.0304,0.72519 0.1468,0.72519 0.26136,0.72519 0.37239,0.7252 0.47823,0.72519 0.57678,0.72519 0.66532,0.7252 0.74051,0.72519 0.79886,0.72519 0.8374,0.72519 0.85448,0.72519 0.85048,0.7252 0.82811,0.72519 0.7921,0.72519 0.74832,0.7252 0.70252,0.72519 0.65917,0.72519 0.62052,0.72519 0.58675,0.7252 0.55642,0.72519 0.52761,0.72519 0.4989,0.72519 0.4698,0.7252 0.44076,0.72519 0.41241,0.72519 0.38484,0.7252 0.35692,0.72519 0.32617,0.72519 0.28942,0.72519 0.24362,0.72519 0.18694,0.7252 0.11936,0.72519 0.0426,0.72519 -0.0405,0.7252 -0.12717,0.72519 -0.21555,0.72519 -0.30509,0.72519 -0.39627,0.7252 -0.48954,0.72519 -0.58431,0.72519 -0.6783,0.7252 -0.76755,0.72519 -0.84711,0.72519 -0.91222,0.72519 -0.95926,0.7252 -0.98652,0.72519 -0.99425,0.72519 -0.98435,0.72519 -0.95977,0.7252 -0.92394,0.72519 -0.88021,0.72519 -0.8315,0.72519 -0.78006,0.7252 -0.72736,0.72519 -0.67419,0.72519 -0.62071,0.72519 -0.56679,0.7252 -0.51231,0.72519 -0.45737,0.72519 -0.40254,0.7252 -0.3488,0.72519 -0.29735,0.72519 -0.24944,0.72519 -0.20604,0.7252 z"
         style="stroke:#000000" />
    </defs>
    <g
       clip-path="url(#pbefbd45709)"
       id="g24">
      <use
         xlink:href="#m9e9b985379"
         x="0"
         y="413.86734"
         style="fill:#a570c3;stroke:#000000"
         id="use24" />
    </g>
  </g>
  <g
     id="LineCollection_1"
     transform="translate(-4.1890148,-17.781353)" />
  <g
     id="LineCollection_2"
     transform="translate(-4.1890148,-17.781353)" />
  <g
     id="LineCollection_3"
     transform="translate(-4.1890148,-17.781353)" />
  <g
     id="patch_3"
     transform="translate(-4.1890148,-17.781353)">
    <path
       d="M 48.718875,288.72553 V 23.50725"
       style="fill:none;stroke:#262626;stroke-width:1.25;stroke-linecap:square;stroke-linejoin:miter"
       id="path24" />
  </g>
  <g
     id="patch_4"
     transform="translate(-4.1890148,-17.781353)">
    <path
       d="M 839.76487,288.72553 V 23.50725"
       style="fill:none;stroke:#262626;stroke-width:1.25;stroke-linecap:square;stroke-linejoin:miter"
       id="path25" />
  </g>
  <g
     id="patch_5"
     transform="translate(-4.1890148,-17.781353)">
    <path
       d="M 48.718875,288.72553 H 839.76487"
       style="fill:none;stroke:#262626;stroke-width:1.25;stroke-linecap:square;stroke-linejoin:miter"
       id="path26" />
  </g>
  <g
     id="patch_6"
     transform="translate(-4.1890148,-17.781353)">
    <path
       d="M 48.718875,23.50725 H 839.76487"
       style="fill:none;stroke:#262626;stroke-width:1.25;stroke-linecap:square;stroke-linejoin:miter"
       id="path27" />
  </g>
  <text
     style="font-size:9px;font-family:Arial;text-align:center;text-anchor:middle;fill:#262626;-inkscape-font-specification:'Arial Bold';font-weight:bold;font-style:normal;font-stretch:normal;font-variant:normal"
     x="100.52309"
     y="285.51666"
     id="text27">Base</text>
  <text
     style="font-size:9px;font-family:Arial;text-align:center;text-anchor:middle;fill:#262626;-inkscape-font-specification:'Arial Bold';font-weight:bold;font-style:normal;font-stretch:normal;font-variant:normal"
     x="148.1991"
     y="285.51666"
     id="text28">Product</text>
  <text
     style="font-size:9px;font-family:Arial;text-align:center;text-anchor:middle;fill:#262626;-inkscape-font-specification:'Arial Bold';font-weight:bold;font-style:normal;font-stretch:normal;font-variant:normal"
     x="197.73616"
     y="285.51666"
     id="text29">Acid</text>
  <text
     style="font-size:9px;font-family:Arial;text-align:center;text-anchor:middle;fill:#262626;-inkscape-font-specification:'Arial Bold';font-weight:bold;font-style:normal;font-stretch:normal;font-variant:normal"
     x="294.8833"
     y="285.51666"
     id="text30">Product</text>
  <text
     style="font-size:9px;font-family:Arial;text-align:center;text-anchor:middle;fill:#262626;-inkscape-font-specification:'Arial Bold';font-weight:bold;font-style:normal;font-stretch:normal;font-variant:normal"
     x="342.55927"
     y="285.51666"
     id="text31">Oxidant</text>
  <text
     style="font-size:9px;font-family:Arial;text-align:center;text-anchor:middle;fill:#262626;-inkscape-font-specification:'Arial Bold';font-weight:bold;font-style:normal;font-stretch:normal;font-variant:normal"
     x="399.59634"
     y="285.51666"
     id="text32">Reducing agent</text>
  <text
     style="font-size:9px;font-family:Arial;text-align:center;text-anchor:middle;fill:#262626;-inkscape-font-specification:'Arial Bold';font-weight:bold;font-style:normal;font-stretch:normal;font-variant:normal"
     x="489.24347"
     y="285.51666"
     id="text33">Base</text>
  <text
     style="font-size:9px;font-family:Arial;text-align:center;text-anchor:middle;fill:#262626;-inkscape-font-specification:'Arial Bold';font-weight:bold;font-style:normal;font-stretch:normal;font-variant:normal"
     x="536.91949"
     y="285.51666"
     id="text34">Product</text>
  <text
     style="font-size:9px;font-family:Arial;text-align:center;text-anchor:middle;fill:#262626;-inkscape-font-specification:'Arial Bold';font-weight:bold;font-style:normal;font-stretch:normal;font-variant:normal"
     x="586.45654"
     y="285.51666"
     id="text35">Acid</text>
  <text
     style="font-size:9px;font-family:Arial;text-align:center;text-anchor:middle;fill:#262626;-inkscape-font-specification:'Arial Bold';font-weight:bold;font-style:normal;font-stretch:normal;font-variant:normal"
     x="732.19379"
     y="285.51666"
     id="text36">Product</text>
  <text
     style="font-size:9px;font-family:Arial;text-align:center;text-anchor:middle;fill:#262626;-inkscape-font-specification:'Arial Bold';font-weight:bold;font-style:normal;font-stretch:normal;font-variant:normal"
     x="779.86975"
     y="285.51666"
     id="text37">Acid</text>
  <text
     style="font-size:9px;font-family:Arial;text-align:center;text-anchor:middle;fill:#262626;-inkscape-font-specification:'Arial Bold';font-weight:bold;font-style:normal;font-stretch:normal;font-variant:normal"
     x="683.63629"
     y="285.51666"
     id="text38">Base</text>
  <defs
     id="defs39">
    <clipPath
       id="pbefbd45709">
      <rect
         x="48.718876"
         y="23.50725"
         width="791.04602"
         height="265.21829"
         id="rect39" />
    </clipPath>
  </defs>
</svg>
